<svg width="18" height="11" viewBox="0 0 18 11" fill="none" xmlns="http://www.w3.org/2000/svg">
<path d="M7.82617 10.1238L0.326174 2.62384C0.11483 2.41249 -0.00390244 2.12585 -0.00390244 1.82696C-0.00390244 1.52808 0.11483 1.24143 0.326174 1.03009C0.537518 0.818744 0.824163 0.700012 1.12305 0.700012C1.42194 0.700012 1.70858 0.818744 1.91992 1.03009L8.62211 7.73415L15.3262 1.03196C15.4308 0.927317 15.5551 0.844306 15.6918 0.787671C15.8285 0.731036 15.9751 0.701887 16.123 0.701887C16.271 0.701887 16.4176 0.731036 16.5543 0.787671C16.691 0.844306 16.8153 0.927317 16.9199 1.03196C17.0246 1.13661 17.1076 1.26085 17.1642 1.39757C17.2209 1.5343 17.25 1.68085 17.25 1.82884C17.25 1.97683 17.2209 2.12338 17.1642 2.2601C17.1076 2.39683 17.0246 2.52107 16.9199 2.62571L9.41992 10.1257C9.31528 10.2305 9.19099 10.3135 9.05418 10.3702C8.91737 10.4268 8.77073 10.4558 8.62266 10.4557C8.47459 10.4555 8.32802 10.4261 8.19134 10.3691C8.05466 10.3122 7.93057 10.2288 7.82617 10.1238Z" fill="#989898"/>
</svg>
